<svg id="Layer_1" data-name="Layer 1" xmlns="http://www.w3.org/2000/svg" viewBox="0 0 2383 1361">
    <rect class="cls-1" y="-2" width="2383" height="1363" />
    <rect class="cls-1" x="989" y="1116" width="41" height="29" />
    <rect class="cls-1" x="570" y="714" width="43" height="29" />
    <rect class="cls-1" x="392" y="404" width="44" height="30" />
    <rect class="cls-1" x="982" y="440" width="42" height="28" />
    <rect class="cls-1" x="1124" y="643" width="40" height="28" />
    <rect class="cls-1" x="1147" y="579" width="42" height="29" />
    <rect class="cls-1" x="1066" y="703" width="53" height="30" />
    <rect class="cls-1" x="837" y="911" width="62" height="31" />
    <rect class="cls-1" x="1300" y="817" width="41" height="30" />
    <rect class="cls-1" x="1723" y="925" width="47" height="32" />
    <rect class="cls-1" x="1090" y="290" width="46" height="31" />
    <rect class="cls-1" x="1220" y="666" width="43" height="28" />
    <rect class="cls-1" x="358" y="576" width="41" height="28" />
    <rect class="cls-1" x="825" y="587" width="42" height="30" />
    <rect class="cls-1" x="881" y="718" width="42" height="32" />
    <rect class="cls-1" x="1031" y="961" width="41" height="30" />
    <rect class="cls-1" x="1367" y="658" width="41" height="29" />
    <rect class="cls-1" x="1407" y="521" width="45" height="27" />
    <rect class="zoomclick" x="466" y="100" width="43" height="30" />
    <rect class="zoomclick" x="524" y="133" width="41" height="28" />
    <rect class="zoomclick" x="411" y="196" width="65" height="29" />
    <rect class="zoomclick" x="302" y="288" width="63" height="28" />
    <rect class="zoomclick" x="296" y="348" width="64" height="28" />
    <rect class="zoomclick" x="446" y="285" width="64" height="29" />
    <rect class="zoomclick" x="486" y="320" width="63" height="30" />
    <rect class="zoomclick" x="507" y="378" width="40" height="29" />
    <rect class="zoomclick" x="458" y="404" width="42" height="30" />
    <rect class="zoomclick" x="319" y="465" width="59" height="30" />
    <rect class="zoomclick" x="355" y="574" width="46" height="32" />
    <rect class="zoomclick" x="403" y="821" width="54" height="29" />
    <rect class="zoomclick" x="328" y="903" width="41" height="30" />
    <rect class="zoomclick" x="661" y="179" width="65" height="29" />
    <rect class="zoomclick" x="590" y="259" width="66" height="30" />
    <rect class="zoomclick" x="621" y="335" width="40" height="31" />
    <rect class="zoomclick" x="609" y="429" width="44" height="27" />
    <rect class="zoomclick" x="555" y="447" width="46" height="30" />
    <rect class="zoomclick" x="601" y="498" width="43" height="30" />
    <rect class="zoomclick" x="688" y="402" width="41" height="27" />
    <rect class="zoomclick" x="723" y="460" width="42" height="27" />
    <rect class="zoomclick" x="667" y="675" width="41" height="28" />
    <rect class="zoomclick" x="700" y="995" width="48" height="28" />
    <rect class="zoomclick" x="771" y="1130" width="39" height="29" />
    <rect class="zoomclick" x="801" y="1045" width="48" height="28" />
    <rect class="zoomclick" x="952" y="889" width="55" height="28" />
    <rect class="zoomclick" x="918" y="562" width="42" height="30" />
    <rect class="zoomclick" x="834" y="521" width="42" height="31" />
    <rect class="zoomclick" x="775" y="540" width="40" height="28" />
    <rect class="zoomclick" x="756" y="573" width="42" height="29" />
    <rect class="zoomclick" x="902" y="444" width="41" height="30" />
    <rect class="zoomclick" x="800" y="378" width="41" height="29" />
    <rect class="zoomclick" x="758" y="338" width="39" height="28" />
    <rect class="zoomclick" x="855" y="320" width="40" height="29" />
    <rect class="zoomclick" x="808" y="268" width="42" height="28" />
    <rect class="zoomclick" x="760" y="256" width="39" height="28" />
    <rect class="zoomclick" x="857" y="206" width="48" height="29" />
    <rect class="zoomclick" x="945" y="224" width="43" height="29" />
    <rect class="zoomclick" x="1075" y="106" width="43" height="29" />
    <rect class="zoomclick" x="1198" y="212" width="41" height="28" />
    <rect class="zoomclick" x="1206" y="338" width="40" height="29" />
    <rect class="zoomclick" x="1115" y="476" width="41" height="29" />
    <rect class="zoomclick" x="1034" y="575" width="39" height="28" />
    <rect class="zoomclick" x="1156" y="811" width="40" height="28" />
    <rect class="zoomclick" x="1128" y="1135" width="63" height="28" />
    <rect class="zoomclick" x="1202" y="1196" width="63" height="29" />
    <rect class="zoomclick" x="1349" y="779" width="41" height="29" />
    <rect class="zoomclick" x="1289" y="622" width="39" height="27" />
    <rect class="zoomclick" x="1283" y="572" width="41" height="29" />
    <rect class="zoomclick" x="1334" y="463" width="44" height="27" />
    <rect class="zoomclick" x="1269" y="437" width="47" height="29" />
    <rect class="zoomclick" x="1329" y="408" width="78" height="29" />
    <rect class="zoomclick" x="1302" y="224" width="40" height="28" />
    <rect class="zoomclick" x="1403" y="180" width="42" height="28" />
    <rect class="zoomclick" x="1307" y="129" width="40" height="27" />
    <rect class="zoomclick" x="1211" y="87" width="40" height="27" />
    <rect class="zoomclick" x="1256" y="70" width="41" height="28" />
    <rect class="zoomclick" x="1299" y="77" width="39" height="27" />
    <rect class="zoomclick" x="1342" y="70" width="44" height="25" />
    <rect class="zoomclick" x="1458" y="93" width="39" height="30" />
    <rect class="zoomclick" x="1545" y="60" width="40" height="28" />
    <rect class="zoomclick" x="1610" y="60" width="40" height="28" />
    <rect class="zoomclick" x="163" y="821" width="39" height="27" />
    <rect class="zoomclick" x="1531" y="383" width="39" height="29" />
    <rect class="zoomclick" x="1594" y="422" width="42" height="27" />
    <rect class="zoomclick" x="1525" y="498" width="40" height="28" />
    <rect class="zoomclick" x="1568" y="524" width="40" height="27" />
    <rect class="zoomclick" x="1695" y="613" width="48" height="29" />
    <rect class="zoomclick" x="1420" y="799" width="57" height="28" />
    <rect class="zoomclick" x="2031" y="819" width="49" height="28" />
    <rect class="zoomclick" x="2037" y="677" width="55" height="28" />
    <rect class="zoomclick" x="2325" y="718" width="45" height="30" />
    <rect class="zoomclick" x="2341" y="604" width="42" height="28" />
    <rect class="zoomclick" x="2220" y="522" width="47" height="29" />
</svg>